<svg width="325" height="269" viewBox="0 0 325 269" fill="none" xmlns="http://www.w3.org/2000/svg">
<g opacity="0.5" filter="url(#filter0_f_6087_52816)">
<path d="M311.55 330.256C243.351 210.184 -501.257 132.156 -615.171 203.788C-749.305 288.134 -154.913 128.834 -451.796 468.421C-383.597 588.493 -38.218 624.632 75.696 553.001C189.61 481.369 379.748 450.329 311.55 330.256Z" fill="url(#paint0_linear_6087_52816)"/>
</g>
<g filter="url(#filter1_f_6087_52816)">
<path d="M426.486 -420.73C432.907 -272.267 303.113 -145.676 322.455 -12.5097C341.797 120.657 359.123 75.2174 496.529 61.5092C633.935 47.801 706.73 -105.247 687.388 -238.414C668.046 -371.581 491.744 -271.485 426.486 -420.73Z" fill="#74B8EC" fill-opacity="0.76"/>
</g>
<defs>
<filter id="filter0_f_6087_52816" x="-790.519" y="21.0522" width="1271.78" height="723.899" filterUnits="userSpaceOnUse" color-interpolation-filters="sRGB">
<feFlood flood-opacity="0" result="BackgroundImageFix"/>
<feBlend mode="normal" in="SourceGraphic" in2="BackgroundImageFix" result="shape"/>
<feGaussianBlur stdDeviation="77.6577" result="effect1_foregroundBlur_6087_52816"/>
</filter>
<filter id="filter1_f_6087_52816" x="193.175" y="-548.043" width="624.603" height="755.481" filterUnits="userSpaceOnUse" color-interpolation-filters="sRGB">
<feFlood flood-opacity="0" result="BackgroundImageFix"/>
<feBlend mode="normal" in="SourceGraphic" in2="BackgroundImageFix" result="shape"/>
<feGaussianBlur stdDeviation="63.6562" result="effect1_foregroundBlur_6087_52816"/>
</filter>
<linearGradient id="paint0_linear_6087_52816" x1="383.5" y1="446.202" x2="-298.816" y2="373.229" gradientUnits="userSpaceOnUse">
<stop stop-color="#3E2CFE"/>
<stop offset="1" stop-color="#2C41FE" stop-opacity="0"/>
</linearGradient>
</defs>
</svg>
